<?xml version="1.0" encoding="UTF-8" standalone="no"?>
<svg xmlns="http://www.w3.org/2000/svg" width="200" height="200" viewBox="0 0 52.916668 52.916666">
  <defs>
    <linearGradient id="grad1" x1="0%" y1="0%" x2="100%" y2="100%">
      <stop offset="0%" style="stop-color:#673ab7;stop-opacity:1" />
      <stop offset="100%" style="stop-color:#3f51b5;stop-opacity:1" />
    </linearGradient>
  </defs>
  <g transform="translate(0,0)">
    <rect width="52.916668" height="52.916666" rx="3.96875" ry="3.96875" 
          fill="#222222"/>
    <rect x="2.645834" y="2.645834" width="47.625" height="47.625" 
          rx="2.645833" ry="2.645833" fill="url(#grad1)"/>
    
    <!-- Creativity Icon Design -->
    <g transform="translate(13.229167,13.229167)" fill="#ffffff">
      <!-- Paint Palette -->
      <path d="M 13,0 C 6,0 0,6 0,13 C 0,20 6,26 13,26 C 20,26 26,20 26,13 C 26,6 20,0 13,0 Z" 
            fill="#222222" stroke="#ffffff" stroke-width="1"/>
      <!-- Color Dots -->
      <circle cx="7" cy="8" r="2" fill="#ffffff"/>
      <circle cx="13" cy="6" r="2" fill="#ffffff"/>
      <circle cx="19" cy="8" r="2" fill="#ffffff"/>
      <circle cx="20" cy="14" r="2" fill="#ffffff"/>
      <circle cx="17" cy="19" r="2" fill="#ffffff"/>
      <circle cx="9" cy="19" r="2" fill="#ffffff"/>
    </g>
  </g>
</svg>
