<?xml version="1.0" encoding="UTF-8" standalone="no"?>
<svg xmlns="http://www.w3.org/2000/svg" width="200" height="200" viewBox="0 0 52.916668 52.916666">
  <defs>
    <linearGradient id="grad1" x1="0%" y1="0%" x2="100%" y2="100%">
      <stop offset="0%" style="stop-color:#ff9800;stop-opacity:1" />
      <stop offset="100%" style="stop-color:#ff5722;stop-opacity:1" />
    </linearGradient>
  </defs>
  <g transform="translate(0,0)">
    <rect width="52.916668" height="52.916666" rx="3.96875" ry="3.96875" 
          fill="#222222"/>
    <rect x="2.645834" y="2.645834" width="47.625" height="47.625" 
          rx="2.645833" ry="2.645833" fill="url(#grad1)"/>
    
    <!-- Interaction Icon Design -->
    <g transform="translate(13.229167,13.229167)" fill="#ffffff">
      <!-- Chat Bubbles -->
      <path d="M 0,5 L 16,5 C 18,5 20,7 20,9 L 20,15 C 20,17 18,19 16,19 L 14,19 L 12,22 L 10,19 L 4,19 C 2,19 0,17 0,15 Z" 
            fill="#222222" stroke="#ffffff" stroke-width="1"/>
      <path d="M 6,0 L 22,0 C 24,0 26,2 26,4 L 26,10 C 26,12 24,14 22,14 L 20,14 L 18,17 L 16,14 L 10,14 C 8,14 6,12 6,10 Z" 
            fill="#ffffff" stroke="#222222" stroke-width="1"/>
    </g>
  </g>
</svg>
