<?xml version="1.0" encoding="UTF-8" standalone="no"?>
<svg xmlns="http://www.w3.org/2000/svg" width="200" height="200" viewBox="0 0 52.916668 52.916666">
  <!-- 背景框 -->
  <rect style="fill:#222222" width="52.916668" height="52.916668" x="0" y="0" rx="3.96875" ry="3.96875"/>
  
  <!-- 内框 -->
  <rect style="fill:#0000ff" width="47.625" height="47.625" x="2.645834" y="2.645834" rx="2.645833" ry="2.645833"/>

  <!-- 主图案：多边形网络 -->
  <g transform="translate(13.229167,10.583334)" style="fill:#ffffff">
    <!-- 中心点 -->
    <circle cx="15" cy="15" r="2" style="fill:#ffffff"/>
    
    <!-- 外围点和连接线 -->
    <circle cx="15" cy="7" r="1.5" style="fill:#ffffff"/>
    <path d="M 15,7 L 15,13" style="stroke:#ffffff;stroke-width:1"/>
    
    <circle cx="23" cy="15" r="1.5" style="fill:#ffffff"/>
    <path d="M 23,15 L 17,15" style="stroke:#ffffff;stroke-width:1"/>
    
    <circle cx="15" cy="23" r="1.5" style="fill:#ffffff"/>
    <path d="M 15,23 L 15,17" style="stroke:#ffffff;stroke-width:1"/>
    
    <circle cx="7" cy="15" r="1.5" style="fill:#ffffff"/>
    <path d="M 7,15 L 13,15" style="stroke:#ffffff;stroke-width:1"/>
    
    <!-- 连接外围点 -->
    <path d="M 15,7 L 23,15 L 15,23 L 7,15 Z" style="fill:none;stroke:#ffffff;stroke-width:0.5"/>
  </g>

  <!-- 底部文字背景 -->
  <rect style="fill:#222222" width="52.916668" height="13.229167" x="0" y="39.6875"/>

  <!-- 底部文字 -->
  <text style="font-family:Montserrat;font-size:4.23333px;font-weight:500;text-align:center;fill:#ffffff" x="26.458334" y="47.625">
    <tspan x="26.458334" y="47.625" text-anchor="middle">MULTILATERAL</tspan>
  </text>
</svg>
