<?xml version="1.0" encoding="UTF-8" standalone="no"?>
<svg xmlns="http://www.w3.org/2000/svg" width="200" height="200" viewBox="0 0 52.916668 52.916666">
  <!-- 背景框 -->
  <rect style="fill:#222222" width="52.916668" height="52.916668" x="0" y="0" rx="3.96875" ry="3.96875"/>
  
  <!-- 内框 -->
  <rect style="fill:#ff0000" width="47.625" height="47.625" x="2.645834" y="2.645834" rx="2.645833" ry="2.645833"/>

  <!-- 主图案：齿轮和工具 -->
  <g transform="translate(13.229167,10.583334)" style="fill:#ffffff">
    <!-- 齿轮 -->
    <path d="M 15,10 L 17,10 L 18,7 L 22,12 L 20,14 L 22,16 L 18,21 L 17,18 L 15,18 L 13,18 L 12,21 L 8,16 L 10,14 L 8,12 L 12,7 L 13,10 Z" style="fill:#ffffff"/>
    <circle cx="15" cy="14" r="2" style="fill:#ff0000"/>
    
    <!-- 扳手 -->
    <path d="M 5,22 L 8,25 L 10,23 L 7,20 Z" style="fill:#ffffff"/>
    
    <!-- 螺丝刀 -->
    <path d="M 20,20 L 25,25 L 23,27 L 18,22 Z" style="fill:#ffffff"/>
  </g>

  <!-- 底部文字背景 -->
  <rect style="fill:#222222" width="52.916668" height="13.229167" x="0" y="39.6875"/>

  <!-- 底部文字 -->
  <text style="font-family:Montserrat;font-size:4.23333px;font-weight:500;text-align:center;fill:#ffffff" x="26.458334" y="47.625">
    <tspan x="26.458334" y="47.625" text-anchor="middle">PRACTICAL</tspan>
  </text>
</svg>
