<?xml version="1.0" encoding="UTF-8" standalone="no"?>
<svg xmlns="http://www.w3.org/2000/svg" width="200" height="200" viewBox="0 0 52.916668 52.916666">
  <defs>
    <linearGradient id="grad1" x1="0%" y1="0%" x2="100%" y2="100%">
      <stop offset="0%" style="stop-color:#4caf50;stop-opacity:1" />
      <stop offset="100%" style="stop-color:#8bc34a;stop-opacity:1" />
    </linearGradient>
  </defs>
  <g transform="translate(0,0)">
    <rect width="52.916668" height="52.916666" rx="3.96875" ry="3.96875" 
          fill="#222222"/>
    <rect x="2.645834" y="2.645834" width="47.625" height="47.625" 
          rx="2.645833" ry="2.645833" fill="url(#grad1)"/>
    
    <!-- Solution Icon Design -->
    <g transform="translate(13.229167,13.229167)" fill="#ffffff">
      <!-- Lightbulb -->
      <path d="M 13,0 C 8,0 4,4 4,9 C 4,12 5,14 7,16 L 7,20 L 19,20 L 19,16 C 21,14 22,12 22,9 C 22,4 18,0 13,0 Z"
            fill="#222222" stroke="#ffffff" stroke-width="1"/>
      <!-- Base of bulb -->
      <rect x="8" y="21" width="10" height="2" fill="#222222"/>
      <rect x="9" y="24" width="8" height="2" fill="#222222"/>
    </g>
  </g>
</svg>
